<?xml version="1.0" encoding="UTF-8"?>
<svg xmlns="http://www.w3.org/2000/svg" version="1.1" viewBox="0 0 512 512">
  <defs>
    <style>
      .cls-1 {
        fill: #d0d080;
      }
    </style>
  </defs>
  <!-- Generator: Adobe Illustrator 28.6.0, SVG Export Plug-In . SVG Version: 1.2.0 Build 709)  -->
  <g>
    <g id="Capa_1">
      <path class="cls-1" d="M487.6,299.9h-7.7v-69c0-10.9-5.4-20.6-13.7-26.5v-9.4c0-13.6-11.1-24.7-24.7-24.7h-5.7l21.9-32.1c7.3-10.8,4.5-25.5-6.2-32.8L302.9,4.1c-5.2-3.6-11.5-4.9-17.7-3.7-6.2,1.2-11.6,4.7-15.1,9.9l-128.2,188.1h-35.7l8.6-87.1c0-1,.7-1.8,1.6-2.2,11.1-4.2,20.7-12,27.1-22,.5-.8,1.4-1.2,2.4-1.1l56,5.5c4,.4,7.6-2.5,8-6.5s-2.5-7.6-6.5-8l-56-5.5c-6.5-.6-12.7,2.4-16.2,7.8-4.7,7.3-11.7,13.1-19.9,16.2-6.1,2.3-10.4,7.8-11,14.4l-8.7,88.6h-9.3l13.6-137.8c.5-5,4.9-8.6,9.9-8.1l113.1,11.2c4,.4,7.6-2.5,8-6.5s-2.5-7.6-6.5-8l-113.1-11.2c-13-1.3-24.6,8.2-25.8,21.2l-11,111.1h-18.7c-13.6,0-24.7,11.1-24.7,24.7v6.4c-11.2,5.1-18.9,16.4-18.9,29.5v248.7c0,17.9,14.5,32.4,32.4,32.4h407.1c17.9,0,32.4-14.5,32.4-32.4v-69h7.7c9,0,16.4-7.4,16.4-16.4v-77.9c0-9-7.4-16.4-16.4-16.4ZM441.5,184.9h0c5.6,0,10.1,4.5,10.1,10.1v3.7c-1.3-.2-2.7-.3-4.1-.3h-31l9.3-13.6h15.7ZM282.1,18.5c1.4-2,3.4-3.3,5.8-3.8.6-.1,1.1-.2,1.7-.2,1.8,0,3.6.5,5.1,1.6l148.5,101.2c4.1,2.8,5.2,8.4,2.4,12.6l-46.7,68.5h-11.2l22.9-33.6c3.7-5.4,4-12.4.8-18.1-4.3-7.6-6-16.5-4.9-25.2.8-6.4-2-12.7-7.4-16.4l-77-52.5c-5.4-3.7-12.3-4-17.9-.9-7.6,4.2-16.6,5.9-25.2,4.7-6.4-.9-12.9,2-16.5,7.4l-91.7,134.6h-11.2L282.1,18.5ZM285.3,142.4c-31.8,0-57.9,24.8-60,56h-37l86.1-126.3h0c.5-.7,1.3-1.1,2.1-1.1s.2,0,.3,0c11.7,1.6,23.9-.6,34.3-6.3.8-.5,1.9-.4,2.7.2l77,52.5c.8.6,1.2,1.5,1.1,2.4-1.5,11.7.8,23.9,6.6,34.2.5.8.4,1.9-.1,2.7l-28.5,41.8h-24.7c-2.1-31.2-28.2-56-60-56ZM330.7,198.5h-90.7c2.1-23.2,21.6-41.4,45.3-41.4,23.7,0,43.3,18.2,45.3,41.4ZM41.5,195c0-5.6,4.5-10.1,10.1-10.1h17.2l-1.3,13.6h-26v-3.4ZM22.6,230.9c0-9.8,8-17.8,17.8-17.8h407.1c9.8,0,17.8,8,17.8,17.8v20.2H22.6v-20.2ZM465.3,479.6c0,9.8-8,17.8-17.8,17.8H40.4c-9.8,0-17.8-8-17.8-17.8v-20.2h39.3c4,0,7.3-3.3,7.3-7.3s-3.3-7.3-7.3-7.3H22.6v-179h442.7v34.2h-69.4c-21.9,0-40.8,12.7-49.8,31.2,0,0,0,.1,0,.2,0,.2-.1.3-.2.5-1.1,2.3-2,4.6-2.8,7.1,0,0,0,0,0,0-1.6,5.2-2.5,10.7-2.5,16.4,0,30.5,24.8,55.3,55.3,55.3h69.4v34.2H108.7c-4,0-7.3,3.3-7.3,7.3s3.3,7.3,7.3,7.3h356.7v20.2ZM489.4,394.2c0,1-.8,1.8-1.8,1.8h-91.6c-15.4,0-28.9-8.6-35.8-21.3-.3-.6-.6-1.2-.9-1.8-.6-1.2-1.1-2.4-1.5-3.7-1.6-4.4-2.5-9.1-2.5-14s.9-9.6,2.5-14c.5-1.2,1-2.5,1.5-3.7.3-.6.6-1.2.9-1.8,6.9-12.7,20.4-21.3,35.8-21.3h91.6c1,0,1.8.8,1.8,1.8v77.9h0Z"/>
    </g>
  </g>
</svg>