<?xml version="1.0" encoding="UTF-8"?>
<svg xmlns="http://www.w3.org/2000/svg" version="1.1" viewBox="0 0 512 512">
  <defs>
    <style>
      .cls-1 {
        fill: #d0d080;
      }
    </style>
  </defs>
  <!-- Generator: Adobe Illustrator 28.6.0, SVG Export Plug-In . SVG Version: 1.2.0 Build 709)  -->
  <g>
    <g id="Layer_1">
      <g>
        <path class="cls-1" d="M254.3,499.3c-17.8,0-35.7-3.7-51.8-10.7l-78.9-34.3c-28.6-12.5-58.9-20.4-90-23.5l-25.9-2.6c-3.8-.4-6.6-3.5-6.6-7.3v-81.3c0-1.6.5-3.1,1.5-4.4,1.5-2,37.8-49.7,95.1-49.7s15.5.9,23.2,2.6c39.8,8.8,71.8,25.4,91.7,37.7,14.6,9.1,31.8,13.9,49.6,13.9h78.9c12.9,0,24.6,6.6,31.4,17.5l.7,1.2,68.9-79.4c13.2-17.6,34.3-28,56.6-28h5.1c2.5,0,4.8,1.2,6.1,3.3,1.4,2.1,1.6,4.7.6,7l-61.5,139.7c-13.3,30.3-40.4,53.2-72.5,61.2l-10.9,2.7-63,25.2c-15.3,6.1-31.5,9.2-48.2,9.2ZM16.6,414.4l18.4,1.8c32.6,3.3,64.4,11.5,94.4,24.6l78.9,34.3c14.3,6.2,30.1,9.5,45.9,9.5s29.2-2.8,42.7-8.2l63.4-25.4c.3-.1.6-.2.9-.3l11.4-2.8c27.7-6.9,51.2-26.7,62.7-52.8l56.8-129.1-1.8.3c-14.7,2.2-28.2,10.2-37,22l-75.5,87v.4c0,.3,0,.6,0,.9,0,20.4-16.6,36.9-36.9,36.9h-110.1c-14.1,0-28.1,2.2-41.5,6.6l-2.7-6.9-2.3-6.9c15-4.9,30.6-7.4,46.4-7.4h110.1c12.3,0,22.2-10,22.2-22.2s-10-22.2-22.2-22.2h-78.9c-20.5,0-40.4-5.6-57.3-16.1-18.9-11.7-49.3-27.4-87.1-35.9-6.5-1.4-13.1-2.2-19.5-2.2-43.6,0-73.9,31.9-82.2,41.7l-.2.3v71.2l1-1v2Z"/>
        <path class="cls-1" d="M328.6,247c-12.6,0-27-4-42.6-11.8-1.7-.9-3-2.3-3.6-4.1-.6-1.8-15.4-44.2,8-75.5,15.3-20.5,42.8-30.8,81.9-30.8s8.9.1,13.6.4c3.8.2,6.7,3.2,6.9,7,0,.9,1,21.6-3.1,45-3.7,20.8-12.3,48.3-32.7,61.6-8.3,5.4-17.8,8.1-28.3,8.1ZM371.9,139.6c-34,0-57.4,8.4-69.8,24.9-5.1,6.8-15.9,26.1-6.9,58.6v.4c.1,0,.5.2.5.2,12.2,5.7,23.2,8.6,32.7,8.6,7.7,0,14.6-1.9,20.4-5.7,27.6-18,29.3-74.8,29.3-86v-1s-1,0-1,0c-1.8,0-3.6,0-5.3,0Z"/>
        <path class="cls-1" d="M201,137.7c-18.1,0-33.6-4.7-46.2-13.9-25-18.3-36.4-53.3-34.1-103.9.2-3.8,3.1-6.8,6.9-7,.9,0,4.4-.2,9.8-.2,11,0,32.6.8,54,6.1,25.3,6.3,43.2,17.1,53.2,32,13.2,19.8,12.1,45.7-3.3,77.2-.8,1.7-2.3,3-4.1,3.7-.7.2-16.3,6-36.1,6ZM234.6,125.9h0v-2,2ZM138.3,27.4c-.8,0-1.5,0-2.2,0h-1s0,1,0,1c-.7,41.2,8.8,69.3,28.4,83.6,10,7.3,22.6,11,37.5,11,12.2,0,22.7-2.5,27.9-4h.4c0-.1.2-.5.2-.5,11.5-24.9,12.4-44.9,2.8-59.4-20.1-30.1-81.8-31.7-93.9-31.7Z"/>
        <path class="cls-1" d="M266.2,351.4c-.2,0-.5,0-.7,0-3.9-.4-6.8-3.7-6.6-7.7.5-9.5,1.3-18.9,2.5-27.9,3.4-58.1,1.9-197.2-85.8-235.6-3.7-1.6-5.4-6-3.8-9.7,1.2-2.7,3.8-4.4,6.7-4.4s2,.2,2.9.6c50.9,22.3,82.9,77.8,92.6,160.6.8,7,1.5,14.4,2,21.9l1.9.3c22.9-57.9,58.1-78.1,59.6-79,1.1-.6,2.3-.9,3.6-.9,2.7,0,5.1,1.4,6.4,3.7,2,3.5.7,8-2.8,10-.2,0-14.2,8.4-29.6,29.3-13.9,18.8-31.9,52-39,103.6-1,17-2.5,27.7-2.6,28.8-.5,3.6-3.6,6.3-7.3,6.3Z"/>
      </g>
    </g>
  </g>
</svg>