<?xml version="1.0" encoding="UTF-8"?>
<svg xmlns="http://www.w3.org/2000/svg" version="1.1" viewBox="0 0 512 512">
  <defs>
    <style>
      .cls-1 {
        fill: #d0d080;
      }
    </style>
  </defs>
  <!-- Generator: Adobe Illustrator 28.6.0, SVG Export Plug-In . SVG Version: 1.2.0 Build 709)  -->
  <g>
    <g id="Capa_1">
      <path class="cls-1" d="M131.8,293.2c4.1.7,8-2,8.7-6.1,8-45.7,1.7-85.7-18.4-115.7-2.3-3.4-7-4.4-10.4-2.1-3.4,2.3-4.4,7-2.1,10.4,17.9,26.7,23.4,62.9,16.1,104.7-.7,4.1,2,8,6.1,8.7h0ZM442.9,13.5c-29.4-18.8-69.1,2.2-69.1,37.9s37.2,59,59.4,69.6c6.1,2.9,13.2,2.9,19.3,0,22.2-10.6,59.4-33.7,59.4-69.6s-39.6-56.8-69.1-37.9ZM446.1,107.5c-2,1-4.4,1-6.4,0-15.3-7.3-50.9-27.3-50.9-56.1s28.3-38.6,47.8-24c3.7,2.8,8.8,2.8,12.5,0,19.6-14.6,47.8-.7,47.8,24s-35.6,48.8-50.9,56.1ZM443.8,232.5c-21.2,0-38.5,17.3-38.5,38.5v10.9c-9.1-10.8-17.7-20.4-25.9-29,17.3-27.6,19.7-49.5,7.3-64.9-6.7-8.3-16.6-13.3-27.8-13.9l9.4-9.4c17.1-17.1,17.1-44.7,0-61.8-8.2-8.2-18.9-12.5-29.7-12.8,10-16.8,7.8-38.8-6.6-53.2-17-17-44.7-17-61.8,0l-6.1,6.1c-.6-15.7-10.6-29.4-24.7-33.8-4-1.2-8.2,1-9.4,5-1.2,4,1,8.2,5,9.4,2.2.7,4.1,1.7,6,3.2,11.7,9.4,10.4,29-.6,40-.1.1-56.2,56.2-56.3,56.3-2.9,2.9-2.9,7.7,0,10.6,2.9,2.9,7.7,2.9,10.6,0,4.7-4.7,78.4-78.4,86.1-86.1,11.2-11.2,29.4-11.2,40.5,0,11.2,11.2,11.2,29.4,0,40.5l-14.8,14.8-70.1,70.1c-2.9,2.9-2.9,7.7,0,10.6,2.9,2.9,7.7,2.9,10.6,0l70.1-70.1c11.2-11.2,29.4-11.2,40.5,0,11.2,11.2,11.2,29.3,0,40.5s-38.5,38.5-49.7,49.7c-17.2-1.9-29.7,9.8-32.1,24.9-1.2-.8-9.7-12.5-27.1-12.5-26.1,0-43.3,27.5-31.7,51-7.8.8-15.3,4.2-21.3,10.1-13.8,13.8-13.8,36.2,0,50l4.7,4.7c-15.6,2.5-27.8,16.1-24.9,35.4.6,4.1,1.9,8.5,3.8,13.1-38.1,1-75.3-13.1-101.1-38.9C14.8,278,14.9,223.7,15,166.2c0-7.3,0-4.6,0-73.1,0-18.1,14.7-32.8,32.8-32.8s32.8,14.7,32.8,32.8v41.4c0,7.1,8.9,10.2,13.4,4.7,46.7-58.2,84.6-95.2,112.8-109.9,3.7-1.9,5.1-6.4,3.2-10.1-1.9-3.7-6.4-5.1-10.1-3.2-27.2,14.2-62.3,46.9-104.3,97.4v-20.3c0-26.4-21.4-47.8-47.8-47.8S0,66.7,0,93.1c0,88,0,65.4,0,73.1-.1,58-.2,118,67.8,186,29.6,29.6,73.6,46.3,119.4,42.9,7.9,12.6,19.7,26.7,35.3,42.2,22.5,22.3,47.2,41.5,58.2,49,46.1,31.1,111,23.1,148.8-14.7,7.9-7.9,15-16,20.9-24.1,2.5-3.3,1.8-8-1.6-10.5s-8-1.8-10.5,1.6c-5.5,7.5-12.1,15-19.5,22.4-33.6,33.6-90.7,39.3-129.8,12.8-10.6-7.2-34.3-25.7-56.1-47.2-15.9-15.7-53.9-56.9-39.8-74.4,6.8-8.4,20.5-7.1,28.2.6l41.8,41.8c2.9,2.9,7.7,2.9,10.6,0,2.9-2.9,2.9-7.7,0-10.6-7.4-7.4-60.1-60.1-67.5-67.5-7.9-7.9-7.9-20.8,0-28.8s20.8-7.9,28.8,0l57.4,57.4c2.9,2.9,7.7,2.9,10.6,0,2.9-2.9,2.9-7.7,0-10.6s-68.7-68.7-68.8-68.8c-7.9-7.9-7.9-20.8,0-28.8,8-7.9,20.8-7.9,28.8,0,.8.8,69.6,69.6,69.7,69.7,2.9,2.9,7.7,2.9,10.6,0,2.9-2.9,2.9-7.7,0-10.6s-47.8-47.8-46.8-46.8c-7.7-7.7-8.8-21.6-.6-28.2,6-4.8,19.2-5.6,47.6,18.3,18,15.1,39.2,38,63.3,68,4.4,5.5,13.4,2.4,13.4-4.7v-31.8c0-13,10.5-23.5,23.5-23.5s23.5,10.5,23.5,23.5c0,63.3,0,50.8,0,56.3,0,27.9.1,54.2-11.8,82.1-1.6,3.8.1,8.2,3.9,9.8,3.8,1.6,8.2-.1,9.8-3.9,13.3-31.2,13.1-59.7,13.1-93.6v-50.7c0-21.2-17.3-38.5-38.5-38.5h0ZM324.3,208.6l10.7-10.7c11.1-11.1,30.4-12.5,40-.6,7.7,9.5,5.5,24.5-6.4,44.6-12.5-12.1-28.4-26-44.2-33.3Z"/>
    </g>
  </g>
</svg>