<?xml version="1.0" encoding="UTF-8"?>
<svg xmlns="http://www.w3.org/2000/svg" version="1.1" viewBox="0 0 512 512">
  <defs>
    <style>
      .cls-1 {
        fill: #d0d080;
      }
    </style>
  </defs>
  <!-- Generator: Adobe Illustrator 28.6.0, SVG Export Plug-In . SVG Version: 1.2.0 Build 709)  -->
  <g>
    <g id="ba1de3aa-54e3-4cde-a410-e3390e555608">
      <g>
        <path class="cls-1" d="M322.1,508.8c-3.9,0-7.1-3.2-7.1-7.1v-141.9c0-3.9,3.2-7.1,7.1-7.1,3.9,0,7.1,3.2,7.1,7.1v141.9c0,3.9-3.2,7.1-7.1,7.1Z"/>
        <path class="cls-1" d="M139.6,508.7c-3.9,0-7.1-3.2-7.1-7v-180.5c0-27.7,9.7-54.6,27.5-75.9l.5-.6v-.8c-1-15.2,1.4-71,13.5-83.8,1.5-1.6,3-2.4,4.6-2.4s1.5.2,2.4.5c3.7,1.4,5.6,5.5,4.2,9.2-7.1,19.4-10.6,39.7-10.4,60.4v41.2c-.2,15.8,5.7,30.6,16.6,41.6,10.8,10.9,25.6,17.2,40.6,17.2s26.3-5,36.6-14.6c11.7-10.6,18.4-25.7,18.4-41.5,0-5.1,0-11.1,0-17.5.2-20.2.4-45.4-3.3-61l-.8-3.5-14.7,14.7-12.8,28.7c-4.5,8.1-10.8,12.2-18.8,12.2s-17.9-4.5-26.4-12.4c-8.2-7.6-13.8-17.1-15-25.3h0c-2.1-9.7,2.6-19.2,11.4-23.3l28.1-13.3,29-28.9-.9-1.4c-6.6-10-15.6-18.4-26-24.3h-.1c-1.8-.9-3.8-1.4-5.8-1.4s-4,.5-5.8,1.3c-9.4,4.8-17.6,11.8-23.7,20.3-1.3,1.7-3.4,2.7-5.6,2.7s-3-.5-4.2-1.4c-1.5-1.1-2.6-2.8-2.9-4.7s.1-3.8,1.3-5.3c14.1-18.1,27.4-26.9,40.7-26.9s27.4,9.4,42,28.9l1.4,1.8,28.4-28.3-1.5-1.7c-2.9-3.4-4.4-7.8-4-12.3s2.4-8.6,5.8-11.5c14.1-11.9,48.7-42.6,65.7-69.5.7-1,1.4-2,2.3-2.9,3.2-3.3,7.6-5.1,12.2-5.1s8.7,1.7,11.9,4.9l32.5,32.5c.3.3.5.6.8.9,3,3.4,4.4,7.8,4.1,12.4-.3,4.5-2.4,8.7-5.9,11.6-14.2,12-49,42.7-66.1,69.9v.2c-3.3,4.9-8.6,7.8-14.4,7.8s-6.4-.9-9.2-2.7l-1.4-.9-40.5,40.5.3,1.1c5.2,21.3,7.3,43.2,6.3,65.1v.8s.5.6.5.6c18.6,22.2,28.4,50.3,27.5,79.2,0,3.9-3.2,7-7,7.1h-.1c-3.9,0-7.1-3.2-7.1-7,.5-16.6-3-33.4-10.2-48.5l-3.2-6.8-.6,7.5c0,.3,0,.7,0,1-1.6,17.7-9.8,34-22.9,45.9-13.1,11.8-29.9,18.4-47.5,18.4s-4.4-.1-6.6-.3c-33.6-4.1-60.2-31.5-63.1-65.3l-.6-7.3-3.2,6.6c-6.7,14.1-10.3,29.8-10.3,45.4v180.5c0,3.9-3.1,7-7,7h-.1ZM234.5,230.8c.6.2,1.3.3,1.9.3,2.5,0,4.8-1.5,5.8-3.7l11.3-25.5-16.3-16.2-24.7,11.7c-2.6,1.2-4.1,4-3.6,6.9,2.8,13.1,12.6,23.2,25.5,26.6ZM248.9,177.1l13.2,13.1,63-63.1-12.8-13.1-63.3,63.1ZM381.2,15.8c-19.8,27.3-43.1,52-69.2,73.4l-1.7,1.4,36.5,36.8,1.3-2.1c17.6-27.8,50.8-57.8,69-73.2l1.6-1.4-1.5-1.5s-8.2-8.4-16.4-16.8c-4.1-4.2-8.2-8.4-11.3-11.5q-5.8-5.8-6.7-5.8h-1l-.6.8Z"/>
        <path class="cls-1" d="M78.1,166.8c-2.7,0-5.2-1.5-6.4-3.9l-16.2-31.9-30.9-18.1c-1.2-.7-2.1-1.7-2.8-2.9-.9-1.7-1-3.6-.4-5.5.6-1.8,1.9-3.3,3.6-4.2l31.9-16.2,18.1-30.9c1.3-2.2,3.7-3.5,6.3-3.5h.1c2.6,0,4.9,1.6,6.1,3.9l16.2,31.9,30.9,18.1c2.3,1.3,3.6,3.8,3.5,6.4,0,2.6-1.6,5-3.9,6.2l-31.9,16.2-18.1,30.9c-.7,1.2-1.7,2.1-2.9,2.8-1,.5-2.1.8-3.2.8h0ZM79,74.8c-.8,1.1-2.1,3.3-3.7,6.3-2.3,4.2-7.8,14-9.7,14.8h-.2c0,0-.1.1-.1.1l-21.7,11,2.6,1.9c1,.8,3.3,2.1,6.2,3.7,4.2,2.3,14,7.8,14.8,9.7v.2c0,0,.1.2.1.2l11,21.7,1.9-2.6c.8-1,2.1-3.3,3.7-6.2,2.3-4.2,7.8-14,9.7-14.8h.2c0,0,.1-.1.1-.1l22.1-11.2-21.6-12.7h-.2c-1.9-1-6.7-11-8.8-15.3-1.4-3-2.6-5.4-3.3-6.5l-1.6-2.4-1.7,2.3Z"/>
        <path class="cls-1" d="M431,331.7c-2.7,0-5.1-1.5-6.4-3.9l-16.2-31.9-30.9-18.1c-1.2-.7-2.1-1.7-2.8-2.9-.9-1.7-1-3.6-.4-5.5.6-1.8,1.9-3.3,3.6-4.2l31.9-16.2,18.1-30.9c.7-1.2,1.7-2.1,2.9-2.8,1-.5,2.1-.8,3.2-.8,2.7,0,5.2,1.5,6.4,3.9l16.2,31.9,30.9,18.1c1.1.7,2,1.6,2.6,2.8.9,1.7,1.1,3.7.5,5.5-.6,1.8-1.8,3.3-3.5,4.2l-31.9,16.2-18.1,30.9c-.7,1.1-1.6,2-2.8,2.6-1,.5-2.2.8-3.3.8h0ZM431.8,239.7c-.8,1-2.1,3.3-3.7,6.2-2.3,4.2-7.8,14-9.7,14.8h-.2c0,0-.1.1-.1.1l-21.7,11,2.6,1.9c1,.8,3.3,2.1,6.3,3.7,4.2,2.3,14,7.8,14.8,9.7v.2c0,0,.1.2.1.2l11,21.7,1.9-2.6c.8-1,2.1-3.3,3.7-6.2,2.3-4.2,7.8-14,9.8-14.8h.2c0,0,.1-.1.1-.1l22.1-11.2-21.6-12.7h-.2c-1.9-1-6.7-11-8.8-15.3-1.4-3-2.6-5.4-3.3-6.5l-1.6-2.4-1.7,2.3Z"/>
      </g>
    </g>
  </g>
</svg>