<?xml version="1.0" encoding="UTF-8"?>
<svg xmlns="http://www.w3.org/2000/svg" version="1.1" viewBox="0 0 512 512">
  <defs>
    <style>
      .cls-1 {
        fill: #d0d080;
      }
    </style>
  </defs>
  <!-- Generator: Adobe Illustrator 28.6.0, SVG Export Plug-In . SVG Version: 1.2.0 Build 709)  -->
  <g>
    <g id="Capa_1">
      <path class="cls-1" d="M367.7,483c-3.7,0-7.3-.6-10.6-1.7-6.7-2.3-11.8-6.8-14.7-12.9-21.4-7-40.7-36.9-53.6-83.2l-17-61.2-37.5-47.9,35.7,128.4s0,0,0,0c0,0,0,0,0,0l17.1,61.7c1.8,6.5-2,13.4-8.6,15.2-7.5,2.1-15.1,2-21.5-.1-6.7-2.3-11.8-6.8-14.7-12.9-21.4-7-40.7-36.9-53.6-83.2l-5.3-19.2c-1.1-4,1.2-8.1,5.2-9.2,4-1.1,8.1,1.2,9.2,5.2l5.3,19.2c9.8,35.3,22,55.9,32.9,66l-.9-3.2c-2.6-9.3-1.4-19.1,3.3-27.5,3.5-6.3,8.8-11.3,15.1-14.5l-37.5-135.1c-1.6-5.7,1-11.6,6.3-14.3,5.3-2.7,11.6-1.3,15.2,3.4l46.8,59.8c.6.8,1.1,1.7,1.3,2.6l17.4,62.6c6.2,22.3,14.1,40.9,22.9,54,3.2,4.8,6.6,8.8,9.9,12l-.9-3.1c-4.7-16.8,3.4-34.4,18.4-42l-8.3-29.9c0,0,0-.1,0-.2,0,0,0,0,0,0l-20.7-74.4-60-76.9c-2.5-3.3-2-8,1.3-10.5,3.3-2.5,8-2,10.5,1.3l61,78.1c.6.8,1.1,1.7,1.3,2.6l21.1,76.1c6.2,22.2,14.1,40.8,22.9,53.8,3.2,4.8,6.6,8.8,10,12l-.9-3.1c-4.7-16.8,3.4-34.3,18.4-42-.4-1.1-.7-2.2-.9-3.4l-31.8-114.5-50.4-64.6c-12.3-15.7-19.5-35.1-20.5-55l-14.1-6.2c-3.8-1.7-5.5-6.1-3.8-9.9,1.7-3.8,6.1-5.5,9.9-3.8l132.5,58.3c13.2,5.8,21.8,18.9,21.8,33.4v171.7c0,6.8-5.5,12.3-12.3,12.3h0c-3.4,0-6.8-.4-9.9-1.2l13.1,47.1c1.8,6.6-2,13.4-8.6,15.2-7.5,2.1-15.1,2-21.4-.1-6.7-2.3-11.8-6.8-14.7-12.9-6.3-2-12.4-6.1-18.3-12l6.4,23.1c1.8,6.5-2,13.4-8.6,15.2-3.6,1-7.3,1.5-10.9,1.5h0ZM257.9,417c-2.6,1.8-4.7,4.1-6.2,6.9-2.8,4.9-3.4,10.6-1.9,16.1l5.6,20.1c1,3.6,3.1,5.9,6.6,7,2.8,1,6.4,1.1,10,.5l-14.1-50.6ZM357.9,417c-7.1,5-10.6,14.2-8.1,23l5.6,20.1c1,3.6,3.1,5.9,6.6,7,2.8,1,6.4,1.1,10,.5l-14.1-50.6ZM414.4,403.7c-7.1,5-10.6,14.2-8.1,23l5.6,20.1c1,3.6,3.1,5.9,6.6,7,2.8,1,6.4,1.1,10,.5l-14.1-50.6ZM437.8,339.4c-8.1,3-14,10.8-14,20v20.8c0,3.8,1.4,6.5,4.5,8.6,2.5,1.7,5.8,2.8,9.5,3.1v-52.5ZM322.3,158.2c2.1,14.1,7.8,27.6,16.6,38.8l51.3,65.7c.6.8,1.1,1.7,1.3,2.6l21.5,77.2c5-9.5,14.1-16.5,24.8-18.7v-100.8c0-8.5-5-16.3-12.8-19.7l-102.7-45.2ZM107.4,383.3c-12.4,0-22.5-10.1-22.5-22.5s10.1-22.5,22.5-22.5,22.5,10.1,22.5,22.5-10.1,22.5-22.5,22.5ZM107.4,353.3c-4.1,0-7.5,3.4-7.5,7.5s3.4,7.5,7.5,7.5,7.5-3.4,7.5-7.5-3.4-7.5-7.5-7.5ZM27.5,368.2c-4.1,0-7.5-3.4-7.5-7.5v-22.5H7.5C3.4,338.2,0,334.8,0,330.7s3.4-7.5,7.5-7.5h12.5v-22.5c0-4.1,3.4-7.5,7.5-7.5s7.5,3.4,7.5,7.5v22.5h12.5c4.1,0,7.5,3.4,7.5,7.5s-3.4,7.5-7.5,7.5h-12.5v22.5c0,4.1-3.4,7.5-7.5,7.5ZM182.6,342.1c-3.3,0-6.3-2.2-7.2-5.5l-15.7-56.4-103.2-45.4C22.2,219.6,0,185.7,0,148.2s3.4-7.5,7.5-7.5,7.5,3.4,7.5,7.5c0,31.5,18.6,60.1,47.5,72.8l106.5,46.9c2.1.9,3.6,2.7,4.2,4.9l16.6,59.9c1.1,4-1.2,8.1-5.2,9.2-.7.2-1.3.3-2,.3h0ZM122.4,232.8c-4.1,0-7.5-3.4-7.5-7.5v-22.5h-12.5c-4.1,0-7.5-3.4-7.5-7.5s3.4-7.5,7.5-7.5h12.5v-22.5c0-4.1,3.4-7.5,7.5-7.5s7.5,3.4,7.5,7.5v22.5h12.5c4.1,0,7.5,3.4,7.5,7.5s-3.4,7.5-7.5,7.5h-12.5v22.5c0,4.1-3.4,7.5-7.5,7.5ZM265.6,132.6c-1,0-2-.2-3-.6L85.6,54.1c-14.4-6.3-29.6-9.5-45.3-9.5H7.5C3.4,44.5,0,41.2,0,37s3.4-7.5,7.5-7.5h32.8c17.8,0,35.1,3.6,51.4,10.8l177,77.9c3.8,1.7,5.5,6.1,3.8,9.9-1.2,2.8-4,4.5-6.9,4.5h0ZM371.8,109.3c-12.4,0-22.5-10.1-22.5-22.5s10.1-22.5,22.5-22.5,22.5,10.1,22.5,22.5-10.1,22.5-22.5,22.5ZM371.8,79.3c-4.1,0-7.5,3.4-7.5,7.5s3.4,7.5,7.5,7.5,7.5-3.4,7.5-7.5-3.4-7.5-7.5-7.5ZM484.5,104c-4.1,0-7.5-3.4-7.5-7.5v-22.5h-12.5c-4.1,0-7.5-3.4-7.5-7.5s3.4-7.5,7.5-7.5h12.5v-22.5c0-4.1,3.4-7.5,7.5-7.5s7.5,3.4,7.5,7.5v22.5h12.5c4.1,0,7.5,3.4,7.5,7.5s-3.4,7.5-7.5,7.5h-12.5v22.5c0,4.1-3.4,7.5-7.5,7.5Z"/>
    </g>
  </g>
</svg>