<?xml version="1.0" encoding="UTF-8"?>
<svg xmlns="http://www.w3.org/2000/svg" version="1.1" viewBox="0 0 512 512">
  <defs>
    <style>
      .cls-1 {
        fill: #d0d080;
      }
    </style>
  </defs>
  <!-- Generator: Adobe Illustrator 28.6.0, SVG Export Plug-In . SVG Version: 1.2.0 Build 709)  -->
  <g>
    <g id="Capa_1">
      <path class="cls-1" d="M88.6,484.3H7.5c-4.1,0-7.5-3.4-7.5-7.5s3.4-7.5,7.5-7.5h81.1c49.2,0,86.6-5.8,114.1-17.8,23.2-10.1,40-24.5,52.3-44.9h-89.2c-28.7,0-51.1-24.4-54-57.7H7.5c-4.1,0-7.5-3.4-7.5-7.5s3.4-7.5,7.5-7.5h111.3c36.4,0,68.3-12.8,92.2-37.1l55.4-56.3-32.7-32.9c-1.7-1.8-2.5-4.3-2-6.7.5-2.4,2.1-4.5,4.4-5.5,7-3,13.6-5.9,20-8.6,29-12.4,51.8-22.2,72.9-34.1,3.6-2,8.2-.8,10.2,2.8s.8,8.2-2.8,10.2c-21.8,12.3-45,22.3-74.4,34.9-3.2,1.4-6.5,2.8-9.8,4.2l82.2,82.7c35.1-80.8,54.4-118.6,118.3-182.6l40.7-40.7c2.6-2.6,3.9-6.1,3.7-9.8-.2-3.7-1.9-7-4.8-9.3-5-4-12.7-3.4-17.4,1.4l-40.7,40.7c-27.7,27.7-49.7,46.8-71.2,61.8-3.4,2.4-8.1,1.5-10.4-1.9-2.4-3.4-1.5-8.1,1.9-10.4,20.8-14.5,42.1-33,69.2-60.1l40.7-40.7c10.3-10.3,26.4-11.4,37.5-2.5,6.2,5,10,12.4,10.4,20.2.4,7.9-2.5,15.6-8.1,21.2l-40.7,40.7c-64.6,64.6-82.3,102.1-119.5,188.1-1,2.3-3,3.9-5.5,4.4-2.4.5-5-.3-6.7-2.1l-33.4-33.6c-8.8,8.9-30.2,30.6-55.5,55.8-1.9,1.9-3.8,3.8-5.6,5.6h59.3c9.4,0,17.1,7.7,17.1,17.1,0,13.9-3.7,27-10.4,36.9-7.4,10.9-18,17.3-30.8,18.5-28.2,54.6-83.5,77.9-183.7,77.9h0ZM126.8,348.8c2.5,21.8,16.1,42.9,39,42.9h101.6c.1,0,.2,0,.3,0,9.8,0,17.5-4.1,23-12.2,5-7.3,7.8-17.6,7.8-28.4,0-1.2-.9-2.1-2.1-2.1h-74.3c-18.8,18.8-27.6,27.6-27.8,27.7-2.9,2.9-7.7,2.9-10.6,0-2.9-2.9-2.9-7.7,0-10.6.1-.1,13.6-13.5,43-42.9l-10.4-10.4c-24,21.8-55.3,34.4-89.5,36.1h0ZM226.9,302.1l10.4,10.4c23-23,42.1-42.3,50.2-50.6l-10.6-10.6-50,50.9Z"/>
    </g>
  </g>
</svg>