<?xml version="1.0" encoding="UTF-8"?>
<svg xmlns="http://www.w3.org/2000/svg" version="1.1" viewBox="0 0 512 512">
  <defs>
    <style>
      .cls-1 {
        fill: #d0d080;
      }
    </style>
  </defs>
  <!-- Generator: Adobe Illustrator 28.6.0, SVG Export Plug-In . SVG Version: 1.2.0 Build 709)  -->
  <g>
    <g id="Capa_1">
      <path class="cls-1" d="M422.5,493.8c-1.5,0-3.1-.1-4.7-.4-7-1.2-13-5.1-17.1-10.9,0-.1-.1-.2-.2-.3-.1,0-.2.1-.3.2-5.8,4-12.9,5.6-19.8,4.3-7.3-1.3-13.4-5.5-17.3-11.3-.1,0-.2.2-.3.2-5.8,4.1-12.9,5.6-19.8,4.3-7-1.2-13-5.1-17.1-10.9,0-.1-.1-.2-.2-.3-5.6,4-12.8,5.9-20.1,4.6-12.6-2.2-21.5-13-21.8-25.3l-96.8-56.4c-3.6-2.1-4.8-6.7-2.7-10.3,2.1-3.6,6.7-4.8,10.3-2.7l100.8,58.8c2.7,1.6,4.2,4.7,3.6,7.8-1.1,6.3,3.1,12.3,9.3,13.4,6.2,1.1,12.3-3.1,13.4-9.3,1.6-9-.4-18.2-5.6-25.7-2.4-3.4-1.5-8.1,1.9-10.4,3.4-2.4,8.1-1.5,10.4,1.9,7.5,10.8,10.4,23.9,8.1,36.9,0,0,0,0,0,0-.5,3,.1,6.1,1.9,8.6,1.8,2.5,4.4,4.2,7.4,4.8,3,.5,6.1-.1,8.6-1.9,2.5-1.8,4.2-4.4,4.8-7.4,2-11.5.3-22.9-5.1-33.2-1.9-3.7-.5-8.2,3.2-10.1,3.7-1.9,8.2-.5,10.1,3.2,6.9,13.2,9.2,28,6.5,42.8,0,0,0,0,0,0-1.1,6.3,3.1,12.3,9.3,13.4,3,.5,6.1-.1,8.6-1.9,2.5-1.8,4.2-4.4,4.8-7.4,2.5-13.7.7-27.6-5.1-40.3-1.7-3.8,0-8.2,3.7-10,3.8-1.7,8.2,0,10,3.7,7.1,15.4,9.3,32.4,6.3,49.2,0,0,0,0,0,0-.5,3,.1,6.1,1.9,8.6,1.8,2.5,4.4,4.2,7.4,4.8,6.3,1.1,12.3-3.1,13.4-9.3,2.9-16,1.1-32.3-5.2-47.2-1.6-3.8.2-8.2,4-9.8,3.8-1.6,8.2.2,9.8,4,5.2,12.3,7.7,25.5,7.6,38.8l7.5,4.3c6.6,3.8,14.2,4.7,21.4,2.6,7.2-2.1,13.1-6.8,16.7-13.4,2.8-6.4.8-14.7-4.5-18.4l-6-3.5c-44.9-25.9-84.2-62.2-113.6-104.9-2.3-3.4-1.5-8.1,1.9-10.4,3.4-2.4,8.1-1.5,10.4,1.9,28.1,40.9,65.7,75.6,108.7,100.4l6.3,3.6c.1,0,.3.2.4.3,11.6,7.8,15.9,24.2,9.9,37.4,0,.1-.1.3-.2.4-5.5,10.3-14.7,17.8-25.9,21-11.2,3.2-23,1.8-33.1-4.1l-1.5-.9c0,.1,0,.3,0,.4-2.3,12.8-13.5,21.9-26.1,21.9h0ZM27.5,448.7c-4.1,0-7.5-3.4-7.5-7.5v-22.5H7.5C3.4,418.7,0,415.4,0,411.2s3.4-7.5,7.5-7.5h12.5v-22.5c0-4.1,3.4-7.5,7.5-7.5s7.5,3.4,7.5,7.5v22.5h12.5c4.1,0,7.5,3.4,7.5,7.5s-3.4,7.5-7.5,7.5h-12.5v22.5c0,4.1-3.4,7.5-7.5,7.5ZM120.8,419.8c-12.4,0-22.5-10.1-22.5-22.5s10.1-22.5,22.5-22.5,22.5,10.1,22.5,22.5-10.1,22.5-22.5,22.5ZM120.8,389.8c-4.1,0-7.5,3.4-7.5,7.5s3.4,7.5,7.5,7.5,7.5-3.4,7.5-7.5-3.4-7.5-7.5-7.5ZM166.1,378.3c-1.3,0-2.6-.3-3.8-1l-89.2-52c-18.6-10.9-31.8-29.2-36.1-50.3s.5-43.2,13.4-60.5l32.3-43.5L1,29.5c-2.1-3.6-.8-8.2,2.7-10.2,3.6-2.1,8.2-.8,10.2,2.7l84.2,145.8c1.5,2.6,1.3,5.8-.5,8.2l-35.2,47.5c-10.3,13.9-14.2,31.6-10.7,48.5,3.5,16.9,14,31.7,29,40.4l89.2,52c3.6,2.1,4.8,6.7,2.7,10.3-1.4,2.4-3.9,3.7-6.5,3.7h0ZM306.4,356c-4.1,0-7.5-3.4-7.5-7.5v-22.5h-12.5c-4.1,0-7.5-3.4-7.5-7.5s3.4-7.5,7.5-7.5h12.5v-22.5c0-4.1,3.4-7.5,7.5-7.5s7.5,3.4,7.5,7.5v22.5h12.5c4.1,0,7.5,3.4,7.5,7.5s-3.4,7.5-7.5,7.5h-12.5v22.5c0,4.1-3.4,7.5-7.5,7.5ZM363.3,302c-2.6,0-5.1-1.3-6.5-3.8L201.6,29.5c-2.1-3.6-.8-8.2,2.7-10.2,3.6-2.1,8.2-.8,10.2,2.7l155.2,268.8c2.1,3.6.8,8.2-2.7,10.2-1.2.7-2.5,1-3.7,1ZM484.5,285.7c-4.1,0-7.5-3.4-7.5-7.5v-22.5h-12.5c-4.1,0-7.5-3.4-7.5-7.5s3.4-7.5,7.5-7.5h12.5v-22.5c0-4.1,3.4-7.5,7.5-7.5s7.5,3.4,7.5,7.5v22.5h12.5c4.1,0,7.5,3.4,7.5,7.5s-3.4,7.5-7.5,7.5h-12.5v22.5c0,4.1-3.4,7.5-7.5,7.5h0ZM146.6,244c-1.3,0-2.6-.3-3.8-1-12.3-7.1-20.9-19.2-23.8-33.1-2.9-13.9.4-28.4,8.8-39.8,2.5-3.3,7.2-4,10.5-1.6,3.3,2.5,4,7.2,1.6,10.5-5.9,8-8.2,18.1-6.2,27.9s8.1,18.2,16.6,23.2c3.6,2.1,4.8,6.7,2.7,10.3-1.4,2.4-3.9,3.7-6.5,3.7ZM329.5,154.4c-12.4,0-22.5-10.1-22.5-22.5s10.1-22.5,22.5-22.5,22.5,10.1,22.5,22.5-10.1,22.5-22.5,22.5ZM329.5,124.4c-4.1,0-7.5,3.4-7.5,7.5s3.4,7.5,7.5,7.5,7.5-3.4,7.5-7.5-3.4-7.5-7.5-7.5Z"/>
    </g>
  </g>
</svg>