<?xml version="1.0" encoding="UTF-8"?>
<svg xmlns="http://www.w3.org/2000/svg" version="1.1" viewBox="0 0 512 512">
  <defs>
    <style>
      .cls-1 {
        fill: #d0d080;
      }
    </style>
  </defs>
  <!-- Generator: Adobe Illustrator 28.6.0, SVG Export Plug-In . SVG Version: 1.2.0 Build 709)  -->
  <g>
    <g id="Layer_1">
      <path class="cls-1" d="M257,337.8c-81.4,0-147.7-66.3-147.7-147.7S175.6,42.4,257,42.4s147.7,66.3,147.7,147.7-66.3,147.7-147.7,147.7ZM257,58.4c-72.6,0-131.7,59.1-131.7,131.7s59.1,131.7,131.7,131.7,131.7-59.1,131.7-131.7-59.1-131.7-131.7-131.7Z"/>
      <path class="cls-1" d="M309.8,273.6c-1.3,0-2.5-.3-3.7-.9l-49.1-25.5-49.1,25.5c-1.1.6-2.4.9-3.7.9h0c-1.7,0-3.3-.5-4.7-1.5-2.5-1.8-3.7-4.8-3.2-7.8l9.1-54.6-39.4-38.8c-2.2-2.1-2.9-5.3-2-8.2.9-2.9,3.4-5,6.4-5.4l54.7-8.2,24.8-49.5c1.4-2.7,4.1-4.4,7.1-4.4s5.8,1.7,7.1,4.4l24.8,49.5,54.7,8.2c3,.5,5.5,2.5,6.4,5.4.9,2.9.2,6-2,8.2l-39.4,38.8,9.1,54.6c.5,3-.7,6-3.2,7.8-1.4,1-3,1.5-4.7,1.5ZM237.5,159.9c-1.2,2.3-3.4,3.9-6,4.3l-43,6.5,31,30.5c1.9,1.8,2.7,4.4,2.3,7l-7.1,42.9,38.6-20.1c1.1-.6,2.4-.9,3.7-.9s2.5.3,3.7.9l38.6,20.1-7.1-42.9c-.4-2.6.4-5.2,2.3-7l31-30.5-43-6.5c-2.6-.4-4.8-2-6-4.3l-19.5-38.9-19.5,38.9Z"/>
      <circle class="cls-1" cx="257" cy="10.5" r="8"/>
      <path class="cls-1" d="M182.1,509.5c-.2,0-.5,0-.7,0-3.1-.3-5.8-2.3-6.8-5.3l-24.6-69.3-70,14.5c-.5.1-1.1.2-1.6.2-2.5,0-4.9-1.2-6.4-3.3-1.8-2.5-2-5.9-.5-8.6l60.9-107.4-1.2-1.1c-39.3-35.5-61.8-86.2-61.8-139.1,0-85.8,58-160.6,141.1-181.8.7-.2,1.3-.3,2-.3,3.6,0,6.8,2.5,7.7,6,1.1,4.3-1.5,8.6-5.8,9.7-76,19.4-129.1,87.8-129.1,166.3s77,171.7,171.7,171.7,171.7-77,171.7-171.7S375.6,43.2,299.6,23.8c-4.3-1.1-6.8-5.4-5.8-9.7.9-3.5,4.1-6,7.7-6s1.3,0,2,.3c83.1,21.2,141.1,96,141.1,181.8s-22.5,103.6-61.8,139.1l-1.2,1.1,60.9,107.4c1.5,2.7,1.4,6.1-.5,8.6-1.5,2.1-3.9,3.3-6.5,3.3s-1.1,0-1.6-.2l-70-14.5-24.6,69.3c-1,2.9-3.7,5-6.8,5.3-.2,0-.5,0-.7,0-2.9,0-5.5-1.5-6.9-4l-68-119.5-68,119.5c-1.4,2.5-4.1,4-6.9,4ZM367.3,341.9c-27.5,20-59.9,32.1-93.8,35.1l-3.1.3,59.8,105.1,21.1-59.4c1.1-3.2,4.1-5.3,7.5-5.3s1.1,0,1.6.2l59.5,12.4-50.9-89.7-1.8,1.3ZM155.2,417.7c3.4,0,6.4,2.1,7.5,5.3l21.1,59.4,59.8-105.1-3.1-.3c-33.9-3-66.3-15.2-93.8-35.1l-1.8-1.3-50.9,89.7,59.5-12.4c.5-.1,1.1-.2,1.6-.2Z"/>
    </g>
  </g>
</svg>