<?xml version="1.0" encoding="UTF-8"?>
<svg xmlns="http://www.w3.org/2000/svg" version="1.1" viewBox="0 0 512 512">
  <defs>
    <style>
      .cls-1 {
        fill: #d0d080;
      }
    </style>
  </defs>
  <!-- Generator: Adobe Illustrator 28.6.0, SVG Export Plug-In . SVG Version: 1.2.0 Build 709)  -->
  <g>
    <g id="Capa_1">
      <path class="cls-1" d="M350.9,504.3c-39.8,0-79.3-7.3-117.1-21.7-36.2-13.7-73.8-20.7-111.8-20.7s-75.6,7-111.8,20.7c-2.3.9-4.9.6-6.9-.8C1.2,480.4,0,478.1,0,475.6v-193.9c0-3.1,1.9-5.9,4.8-7,68.6-26.1,141.9-28.7,211.7-7.6,4,1.2,6.2,5.4,5,9.3-1.2,4-5.4,6.2-9.3,5-65.1-19.6-133.2-17.7-197.3,5.5v178c34.7-11.9,70.7-18,107-18s79.3,7.3,117.1,21.7c36.2,13.7,73.8,20.7,111.8,20.7s72.3-6.4,107-18.9v-178c-34,11.7-69.3,17.7-104.8,18-39.1.3-77.9-6.5-115.2-20.1-3.9-1.4-5.9-5.7-4.5-9.6,1.4-3.9,5.7-5.9,9.6-4.5,35.6,13,72.6,19.5,109.9,19.2,37.3-.2,74.3-7.2,109.8-20.7,2.3-.9,4.9-.6,6.9.8s3.2,3.7,3.2,6.2v193.9c0,3.1-1.9,5.9-4.8,7-37.9,14.4-77.3,21.7-117.1,21.7h0ZM319.9,451.8c-4,0-8-.1-12.1-.4-26.1-1.7-51-10-74-18.8-22.9-8.7-46.6-17.7-70.2-20.9l-6.4-.9c-25-3.4-46.6-6.2-62.3-12.4-19.1-7.5-28.4-19.5-28.4-36.8s5.3-24.7,15.2-34c17.2-16.2,47.6-24.1,83.4-21.7,26.1,1.7,51,10,74,18.8,22.9,8.7,46.6,17.7,70.2,20.9,4.1.6,7,4.3,6.4,8.4-.6,4.1-4.3,7-8.4,6.4-25.3-3.4-49.8-12.7-73.5-21.7-21.9-8.3-45.6-16.3-69.6-17.8-31.6-2.1-57.9,4.4-72.1,17.7-6.9,6.5-10.5,14.3-10.5,23,0,22.9,26.6,27.5,77.7,34.4l6.4.9c25.3,3.4,49.8,12.7,73.5,21.7,21.9,8.3,45.6,16.3,69.6,17.8,31.6,2.1,57.9-4.4,72.1-17.7,6.9-6.5,10.5-14.3,10.5-23,0-17-13.9-24.9-55-31.2-4.1-.6-6.9-4.5-6.3-8.5.6-4.1,4.5-6.9,8.5-6.3,34.3,5.2,67.8,13.1,67.8,46s-5.3,24.7-15.2,34c-15.3,14.3-40.8,22.1-71.2,22.1h0ZM240.3,250.4h0c-4.1,0-7.4-3.4-7.4-7.5h0s.6-78,.6-78c.3-6.8-1.7-10.5-9-14.5l-28.3-15.8c-32.5-18.2-44.7-59.2-27.2-91.5,8.7-16,23.1-27.6,40.6-32.7,17.5-5.1,35.8-3,51.7,5.9,15.8,8.8,25.6,25.6,25.6,43.7v5l103,57.5c3.6,2,4.9,6.6,2.9,10.2-2,3.6-6.6,4.9-10.2,2.9l-95.6-53.5v51.6c70.9,39.6,171.7,95.9,176.6,98.7,10.8,6.1,24.6,2.2,30.6-8.7,6.1-10.8,2.2-24.6-8.7-30.6l-77.7-43.4c-3.6-2-4.9-6.6-2.9-10.2s6.6-4.9,10.2-2.9l77.7,43.4c18.1,10.1,24.5,33,14.4,51-10.1,18-33,24.5-51,14.4-5-2.8-107.8-60.2-178.8-99.9h-9.5c-10.3,0-19.5,8.8-19.5,19.6l-.6,77.8c0,4.1-3.4,7.4-7.5,7.4h0ZM228.4,22.7c-4.9,0-9.9.7-14.7,2.1-13.6,3.9-24.8,13-31.5,25.4-13.6,25.1-4,57.1,21.3,71.3l28.3,15.8c3.6,2,6.6,4.2,9,6.7,3.7-4.8,8.7-8.5,14.3-10.8-24.8-13.9-42.3-23.6-44.3-24.7-8.7-4.9-15.1-12.9-17.8-22.5s-1.5-19.8,3.3-28.5c10.1-18.1,33-24.5,51-14.4l7.2,4c3.6,2,4.9,6.6,2.9,10.2s-6.6,4.9-10.2,2.9l-7.2-4c-10.8-6.1-24.6-2.2-30.6,8.7-2.9,5.2-3.6,11.3-2,17.1s5.4,10.6,10.7,13.5c2.2,1.3,24,13.4,53.7,30V60c0-12.7-6.9-24.4-17.9-30.6-7.9-4.4-16.7-6.7-25.5-6.7h0Z"/>
    </g>
  </g>
</svg>