<?xml version="1.0" encoding="UTF-8"?>
<svg id="Capa_1" data-name="Capa 1" xmlns="http://www.w3.org/2000/svg" version="1.1" viewBox="0 0 512 512">
  <defs>
    <style>
      .cls-1 {
        fill: #355f3b;
        stroke-width: 0px;
      }
    </style>
  </defs>
  <path class="cls-1" d="M303.7,249.4l-65.4,65.4-30-30c-2.9-2.9-7.7-2.9-10.6,0l-30.5,30.5c-2.9,2.9-2.9,7.7,0,10.6l65.8,65.8c2.9,2.9,7.7,2.9,10.6,0l101.2-101.2c2.9-2.9,2.9-7.7,0-10.6l-30.5-30.5c-2.9-2.9-7.7-2.9-10.6,0h0ZM238.3,375.7l-55.2-55.2,19.9-19.9,30,30c2.9,2.9,7.7,2.9,10.6,0l65.4-65.4,19.9,19.9-90.5,90.5Z"/>
  <path class="cls-1" d="M447.5,484.9V67c0-14.9-12.2-27.1-27.1-27.1h-25.5v-10.6C394.9,13.1,381.8,0,365.6,0s-29.3,13.1-29.3,29.3v10.6h-51.1v-10.6C285.3,13.1,272.1,0,256,0s-29.3,13.1-29.3,29.3v10.6h-51.1v-10.6C175.6,13.1,162.5,0,146.4,0s-29.3,13.1-29.3,29.3v10.6h-25.5c-14.9,0-27.1,12.2-27.1,27.1v371.5c0,4.1,3.4,7.5,7.5,7.5s7.5-3.4,7.5-7.5V144h299.2c4.1,0,7.5-3.4,7.5-7.5s-3.4-7.5-7.5-7.5H79.5v-62c0-6.7,5.4-12.1,12.1-12.1h25.5v22.2c0,16.1,13.1,29.3,29.3,29.3s29.3-13.1,29.3-29.3v-22.2h51.1v22.2c0,16.1,13.1,29.3,29.3,29.3s29.3-13.1,29.3-29.3v-22.2h51.1v22.2c0,16.1,13.1,29.3,29.3,29.3s29.3-13.1,29.3-29.3v-22.2h25.5c6.7,0,12.1,5.4,12.1,12.1v62h-18.8c-4.1,0-7.5,3.4-7.5,7.5s3.4,7.5,7.5,7.5h18.8v181.4c0,35.3-27.5,64.2-62.2,66.5,3.5-5.6,6.6-11.4,9.2-17.5,1.7-3.8,0-8.2-3.9-9.9-3.8-1.7-8.2,0-9.9,3.9-3.7,8.4-8.3,16.3-13.8,23.6-13.5,0-24.4,10.8-24.4,24.4-20.8,15.5-45.4,23.7-71.6,23.7-66,0-119.7-53.7-119.7-119.7s53.7-119.7,119.7-119.7,128,63.2,118.8,135.2c-.5,4.1,2.4,7.9,6.5,8.4,4.1.5,7.9-2.4,8.4-6.5,10.4-81-52.9-152.1-133.6-152.1s-134.7,60.4-134.7,134.7,60.4,134.7,134.7,134.7,50.1-7,71.4-20.5c-2.3,34.7-31.3,62.2-66.5,62.2H91.6c-6.7,0-12.1-5.4-12.1-12.1v-11.5c0-4.1-3.4-7.5-7.5-7.5s-7.5,3.4-7.5,7.5v11.5c0,14.9,12.2,27.1,27.1,27.1h328.8c14.9,0,27.1-12.2,27.1-27.1h0ZM160.6,77.1c0,7.9-6.4,14.3-14.3,14.3s-14.3-6.4-14.3-14.3V29.3c0-7.9,6.4-14.3,14.3-14.3s14.3,6.4,14.3,14.3v47.8ZM270.3,77.1c0,7.9-6.4,14.3-14.3,14.3s-14.3-6.4-14.3-14.3V29.3c0-7.9,6.4-14.3,14.3-14.3s14.3,6.4,14.3,14.3v47.8ZM379.9,77.1c0,7.9-6.4,14.3-14.3,14.3s-14.3-6.4-14.3-14.3V29.3c0-7.9,6.4-14.3,14.3-14.3s14.3,6.4,14.3,14.3v47.8ZM342.6,430.3v-13.9c0-5.1,4.2-9.3,9.3-9.3h13.9c21.8,0,41.6-8.6,56.3-22.5-17.2,47-54.9,84.8-102,102,13.9-14.7,22.5-34.5,22.5-56.3h0ZM420.4,497h-86.2c43.1-18.4,79-53,98.3-98.3v86.2c0,6.7-5.4,12.1-12.1,12.1h0Z"/>
</svg>