<?xml version="1.0" encoding="UTF-8"?>
<svg id="Layer_1" data-name="Layer 1" xmlns="http://www.w3.org/2000/svg" version="1.1" viewBox="0 0 512 512">
  <defs>
    <style>
      .cls-1 {
        fill: #355f3b;
        stroke-width: 0px;
      }
    </style>
  </defs>
  <path class="cls-1" d="M256,0C114.8,0,0,114.8,0,256s20.2,115.6,56.9,160.9c3.6,4.4,10,5.1,14.4,1.5,4.4-3.6,5.1-10,1.5-14.4-33.7-41.7-52.3-94.3-52.3-148C20.5,126.1,126.1,20.5,256,20.5s235.5,105.7,235.5,235.5-105.7,235.5-235.5,235.5-106.3-18.6-148-52.3c-4.4-3.6-10.8-2.9-14.4,1.5-3.6,4.4-2.9,10.8,1.5,14.4,45.3,36.7,102.5,56.9,160.9,56.9,141.2,0,256-114.8,256-256S397.2,0,256,0Z"/>
  <path class="cls-1" d="M360.2,111.9c3-4.8,1.7-11.1-3.1-14.1-30.2-19.3-65.1-29.5-101.1-29.5-103.5,0-187.7,84.2-187.7,187.7s84.2,187.7,187.7,187.7,187.7-84.2,187.7-187.7-15.4-86.4-43.3-120c-3.6-4.3-10.1-4.9-14.4-1.3-4.3,3.6-4.9,10.1-1.3,14.4,24.9,29.9,38.6,67.9,38.6,106.9,0,92.2-75,167.3-167.3,167.3s-167.3-75-167.3-167.3,75-167.3,167.3-167.3,63.2,9.1,90.1,26.3c4.8,3,11.1,1.7,14.1-3.1Z"/>
  <path class="cls-1" d="M286.7,215c0,5.7,4.6,10.2,10.2,10.2s10.2-4.6,10.2-10.2c0-24.7-17.6-45.4-41-50.2v-18.1c0-5.7-4.6-10.2-10.2-10.2s-10.2,4.6-10.2,10.2v18.1c-23.3,4.8-41,25.4-41,50.2s17.6,45.4,41,50.2v60.7c-11.9-4.2-20.5-15.6-20.5-29s-4.6-10.2-10.2-10.2-10.2,4.6-10.2,10.2c0,24.7,17.6,45.4,41,50.2v18.1c0,5.7,4.6,10.2,10.2,10.2s10.2-4.6,10.2-10.2v-18.1c23.3-4.8,41-25.4,41-50.2s-17.6-45.4-41-50.2v-60.7c11.9,4.2,20.5,15.6,20.5,29ZM245.8,244c-11.9-4.2-20.5-15.6-20.5-29s8.6-24.7,20.5-29v57.9ZM286.7,297c0,13.4-8.6,24.7-20.5,29v-57.9c11.9,4.2,20.5,15.6,20.5,29Z"/>
</svg>